<svg width="18" height="18" viewBox="0 0 18 18" fill="none" xmlns="http://www.w3.org/2000/svg">
<g clip-path="url(#clip0_2077_291)">
<path d="M16.1653 3.00002C16.0972 2.993 16.0285 2.993 15.9603 3.00002H1.96031C1.87058 3.0014 1.78145 3.01485 1.69531 3.04002L8.92031 10.235L16.1653 3.00002Z" fill="#3B82F6"/>
<path d="M16.9048 3.69501L9.62484 10.945C9.43748 11.1313 9.18403 11.2358 8.91984 11.2358C8.65566 11.2358 8.40221 11.1313 8.21484 10.945L0.999844 3.75001C0.977663 3.83153 0.965903 3.91553 0.964844 4.00001V14C0.964844 14.2652 1.0702 14.5196 1.25774 14.7071C1.44527 14.8947 1.69963 15 1.96484 15H15.9648C16.2301 15 16.4844 14.8947 16.672 14.7071C16.8595 14.5196 16.9648 14.2652 16.9648 14V4.00001C16.9609 3.89583 16.9406 3.79293 16.9048 3.69501ZM2.64984 14H1.95484V13.285L5.58984 9.68001L6.29484 10.385L2.64984 14ZM15.9548 14H15.2548L11.6098 10.385L12.3148 9.68001L15.9498 13.285L15.9548 14Z" fill="#3B82F6"/>
</g>
<defs>
<clipPath id="clip0_2077_291">
<rect width="18" height="18" fill="white"/>
</clipPath>
</defs>
</svg>
